<svg xmlns="http://www.w3.org/2000/svg" width="505" height="358" viewBox="0 0 505 358">
  <metadata><?xpacket begin="﻿" id="W5M0MpCehiHzreSzNTczkc9d"?>
<x:xmpmeta xmlns:x="adobe:ns:meta/" x:xmptk="Adobe XMP Core 5.6-c138 79.159824, 2016/09/14-01:09:01        ">
   <rdf:RDF xmlns:rdf="http://www.w3.org/1999/02/22-rdf-syntax-ns#">
      <rdf:Description rdf:about=""/>
   </rdf:RDF>
</x:xmpmeta>
                                                                                                    
                                                                                                    
                                                                                                    
                                                                                                    
                                                                                                    
                                                                                                    
                                                                                                    
                                                                                                    
                                                                                                    
                                                                                                    
                                                                                                    
                                                                                                    
                                                                                                    
                                                                                                    
                                                                                                    
                                                                                                    
                                                                                                    
                                                                                                    
                                                                                                    
                                                                                                    
                           
<?xpacket end="w"?></metadata>
<defs>
    <style>
      .cls-1 {
        fill: #fff;
        fill-rule: evenodd;
      }
    </style>
  </defs>
  <path id="getting-married.svg" class="cls-1" d="M48,89s-12.573-6.529-17,1-15,33.658-15,62,7.747,58.878,19,53,22-24.251,22-34,1-41,1-41,7.143-13.171,9-12,2,1,2,1h0v44c0,13.428-1,34-1,34s9.662-4.677,20-4,16.6,7.988,16,9-3.819,2.243-7-1a18,18,0,0,0-14-5c-5.187.585-15,5-15,5s0.945,35.688-4,62-11.055,27.715-27,30-15-24.672-15-34,5.169-26.7,14-38a71.527,71.527,0,0,1,19-17l1-16s-13.755,27.811-34,22S0,176.12,0,164s-0.849-33.3,7-51S28.09,83.547,39,83s14,4,14,4,12.057-4.967,19,0,7.7,7,8,9-3.072,1.907-5-1a15.684,15.684,0,0,0-11-7,9.444,9.444,0,0,0-9,3s5.4,5.06,4,19-13.414,16.875-17,11S39.734,102.155,48,89Zm4,3s-8.1,6.282-8,16,1.792,12.777,5,12,5.145-4.5,6-9A29.989,29.989,0,0,0,52,92Zm3,117s2.858,30.918-5,58-21.676,23.729-24,11S20.184,234.684,55,209Zm34-75s13.787,0.1,18-16-11.081-13.55-14-8S88.99,123.429,89,134Zm34-46s-0.15,5.4,0,14-0.271,19.134,1,27c-2.942,14.779-12.979,32.793-25,33-8.308-.054-10.16-15.881-10-24,4.9-.271,18.549-1.454,22-19s-9.333-19.229-17-16-17.963,12.61-17,30,1.387,33.694,16,35,26.554-16.378,29-21,4-12,4-12a13.063,13.063,0,0,0,14,8c10.731-1.133,21-20,21-20s-0.624,23.686,2,36,15.773,19.623,25,13,13.315-19.591,13-36c2.039,7.49,5.642,10.583,13,7s17-21,17-21-0.975,18.667-1,24,3.131,8.74,8,6,5.707-4.9,6-16,1-29,1-29l16-27s5.226-10.13,5,0-1.955,33.577,0,40,5.789,11,13,7,14-16,14-16,0.038,8.91,11,11,18-8,18-8,0.666,30.03-14,47-27.931,14.6-36,12c8.309-5.289,10.693-9.427,12.072-15.3S285.962,136.183,268,138c-21.4,4.419-17.237,27.179-14,35-6.16,5.457-14,2-14,2s-14.6-1.807-22,1-13.224,9.414-13,11,1.327,3.214,4,0,7.088-8.164,16-9,12.323,0.176,17,1,13-2,13-2a23.472,23.472,0,0,0,19,9c12.854-.046,25.578-11.015,39-22s20.85-30.073,24-56,5.655-64.278,5-67-3.344-2.122-6-1-7.624,3.227-8,7a81.638,81.638,0,0,0,0,10s-10.047-14.353-19-8-13.452,19.718-16,30-2,27-2,27-11.408,19.063-12,7,1.071-31.1,1-39-6.368-11.33-9-11-5.738,3.51-12,14-14,22-14,22,0.61-9.076,0-14-2.885-12.726-8-7-5.492,7.481-5,11,0,24,0,24-7.368,14.562-13,20-6.8,4.135-6-7,1.219-39.061,1-46-1.113-12-6-9-7.484,2.438-7,10-1.826,39.188-3,55-2.315,19.525-6,26-10.348,13.177-14,2-4-26.415-4-52,1-46,1-46,11.254-8.532,17-12a28.35,28.35,0,0,1,10-4s-2.838,4.928,3,8,12.043-.442,13-3-0.27-11.736-10-11-15.271,5.509-20,9a144.06,144.06,0,0,1-13,8s1.1-17.141,1-24-0.525-12.821-6-9-6.724,3.267-7,11-1,27-1,27a93.249,93.249,0,0,1-13,10c-6.877,4.238-11,4-11,4s0.971-23.156,1-31-0.719-10.9-6-8-7.895,3.065-8,9-2,33-2,33a13.25,13.25,0,0,1-11-2c-5.688-3.815-8.038-6.894-10-6s-3.365,1.01-.155,3.994C104.515,81.476,108.293,88.5,123,88Zm15-3a60.037,60.037,0,0,0,13-6c5.463-3.635,11-8,11-8l-1,46s-7.065,10.448-11,15-10.547,8.9-12-1S138,85,138,85ZM328,62s-7.3-9.215-12-10-9.475,14.085-11,26-2.719,32.837,3,37,10.44-1.617,15-7C326.121,92.67,327.241,80.975,328,62ZM269,170s8.872,0,12-15-10.207-17.431-15-9S262.53,169.968,269,170ZM50,328s-6.75,5.783-2,16,14.355,12.754,23,5,7.066-13.933,7-26,0.856-67.693-1-88-2.309-21.509,2-21,20.438,41.375,25,50,6.19,13.322,7,12,17-91,17-91,2.426-15.7,7-22,9.547-8.454,12-5-0.991,9.62-1,24,0.472,61.793,6,91,17.157,51.06,29,56,36.785,7.091,48-5,13-30,13-30-0.393-2.861,2-2,1.06,4.547,0,10-6.409,30.536-38,38-47.758-2.618-57-26-16.354-79.61-16-103,1-32,1-32l-19,98s-3.375,9.915-9-1-16-31-16-31,3.867,51.962,1,84-35.662,33.109-43,23-4.882-19.937-3-24S51.532,324.85,50,328ZM197,226a43.172,43.172,0,0,0-11-7c-5.952-2.429-16.978,2.43-19,9s-7.463,19.7-3,40,21.382,18.99,27,15,11-17,11-17,2.732,22.472,9,27,13.079-1.594,16-6,9.34-31.407,11-42,2-15,2-15h10s3.143,34.7,8,53,9.692,21.777,17,19,13.455-8.406,17-19,9-41,9-41,10.91-.576,12,0,0.6,5.084,1,14,3.752,14.319,9,18,9.408,4.227,15-3,12-26,12-26,2.913,15.144,13,14,18-24,18-24,1.39,12.753,10,23,26.762,7.973,33,0,11-21,11-21-0.471,9.1,9,11,19.352-3.814,24-10a35.8,35.8,0,0,0,6-13s0.475,14.189,10,17,17.327-4.392,20-11,1.169-15.884-1-13,1.165,8.249-4,15-9.952,4.849-12-11-3.98-43.969-4-54,0-16,0-16,10.573-3.82,15-19,3.273-23.126-5-30-15.244.7-17,3-4.324,9.075-5,19-1,25-1,25-45.417-1.137-55-4-40.259-6.911-50-4-16.685,7.677-19,16,5.593,15.388,14,10,7.2-16.7-6-16c7.83-5.85,14.656-6.69,25-7s18.569,2.023,37,5,54,4,54,4-0.309,28.019,2,37c-5.147-8.164-10.05-12.548-17-13s-12.248,2.531-15,15-6.106,41.638-13,54-17.9,20.752-24,6-6-39-6-39,18.838,0.377,23-18-14.061-20.608-21-17-8.315,5.127-11,13-6.241,31.442-11,43-12.2,29.029-13,9-2-57-2-57-1.071-8.557-7-4-4.679,4.43-5,12,0.5,28.319-2,43-10.275,34.942-17,23-4.242-24.364-5-29-4.5-6.241-9-3-15,3-15,3,1.257-13.184-3-20-12.134-6.746-15-1-2.2,14.823,2,22,10,9,10,9-0.77,6.855-5,27-6.262,26.77-17,26-10.854-54.529-11-62,0.616-11.41-6-9-16,0-16,0,3.106-15.968,0-25-10.737-10.7-16-2-1.535,19.345,1,25,10,8,10,8-2.066,21.193-6,38-9.489,26.6-13,11-5.862-52.229-7-60-3.733-10.158-8-6-6.876,6.373-6,9A19.988,19.988,0,0,1,197,226Zm276-10s-3.606,16.375-10,22-10.588,8.51-13-6-2.661-31.388,1-43,10.241-5.844,15,0a30.859,30.859,0,0,1,6,11Zm-76-6s0.1-11.456,3-20c2.331-7.837,7.067-10.032,13-6C419.464,190.465,416.932,209.131,397,210ZM197,232l3,27s-3.595,12.217-8,17-9.926,6.61-14-10-4.718-36.219,1-42S197,232,197,232Zm101-1s1.958-10.038-3-17-9.343-.6-8,7S298,231,298,231Zm-61-10a38.532,38.532,0,0,0,1-17c-1.67-8.719-8.182-13.61-9,0S235.523,220.6,237,221ZM45.337,21.38l1.656-.74q0.19,0.311.445,0.656t0.6,0.764q0.342,0.419.792,0.938T61.417,37.917l0.857-.34L61.217,19.593,73.082,33.3l0.886-.351q-0.116-4.407-.532-11.907T73.048,12.57a5.769,5.769,0,0,1,.229-1.586A2.223,2.223,0,0,1,73.9,9.989a5.934,5.934,0,0,1,1.143-.764L74.65,8.237l-6.043,2.394,0.524,1.322,2.342-1.046a8.452,8.452,0,0,0-.081,1.3q0.008,0.678.167,3.094t0.774,12.962l-0.073.029q-0.98-1.242-4.039-4.87T64.347,18.84q-0.815-.954-4.086-4.969l-0.959.38q0.3,4.2.381,5.437T59.846,22.3q0.084,1.379.275,4.278t0.236,3.5q0.046,0.6.1,1.239t0.1,1.187l-0.058.023Q60,31.923,59.538,31.392T56.378,27.72q-2.7-3.141-4.6-5.529a8.968,8.968,0,0,1-.888-1.371,1.874,1.874,0,0,1-.236-1.041,1.3,1.3,0,0,1,.486-0.831,5.492,5.492,0,0,1,1.286-.762L52.033,17.2l-7.22,2.86Zm42.829-4.525q2.465-.763,2.692-0.823l0.438-.116a7.759,7.759,0,0,1,1.285-.242,1.8,1.8,0,0,1,.963.158,1.767,1.767,0,0,1,.718.7,5.443,5.443,0,0,1,.539,1.4l1.012-.267-1.718-6.511-1.375.363,0.932,2.614-5.8,1.531-1.315-4.986q-0.251-.952-0.393-1.642a2.924,2.924,0,0,1-.033-1.2,1.522,1.522,0,0,1,.525-0.858A3.758,3.758,0,0,1,87.9,6.357l2.844-.8a6.972,6.972,0,0,1,1.617-.241,2.94,2.94,0,0,1,1.435.324,3.372,3.372,0,0,1,1.2,1.106,6.654,6.654,0,0,1,.884,2.094l1.012-.267L95.306,3.19,80.425,7.117l0.359,1.36,2.2-.726q0.063,0.485.19,1.058t0.294,1.208L87,23.4,87.239,24.3a11.922,11.922,0,0,1,.252,1.171,2.383,2.383,0,0,1-.027.969,1.53,1.53,0,0,1-.484.767,2.824,2.824,0,0,1-1.109.543l0.271,1.027,15.969-4.214-1.41-6.076-1.057.279a7.3,7.3,0,0,1,.287,2.373,3.729,3.729,0,0,1-.512,1.7A3.444,3.444,0,0,1,98.228,24a7.231,7.231,0,0,1-1.762.732l-5.9,1.653a9.2,9.2,0,0,0-.174-1q-0.131-.587-0.358-1.449Zm17.667-8.977a5.055,5.055,0,0,0,.961-1.015,10.3,10.3,0,0,0,.811-1.3A10.169,10.169,0,0,0,108.2,4.2a6.219,6.219,0,0,0,.3-1.2,3.693,3.693,0,0,0,0-.985,2.436,2.436,0,0,0-.265-0.831,1.828,1.828,0,0,0-.529-0.6,1.691,1.691,0,0,0-.788-0.3,1.481,1.481,0,0,0-1.1.274,1.546,1.546,0,0,0-.586,1.111,1.412,1.412,0,0,0,.066.67,1.216,1.216,0,0,0,.353.519,1.273,1.273,0,0,0,.584.279,1.491,1.491,0,0,0,.747-0.051,4.451,4.451,0,0,1-.192,1.264,8.376,8.376,0,0,1-.455,1.189,7.006,7.006,0,0,1-.579,1,4.793,4.793,0,0,1-.571.695Zm16.725,5.63q0.321,0.35.613,0.725t0.554,0.745q0.261,0.37.5,0.688l2.367,3.168q0.38,0.491.722,0.916t0.706,0.825q0.363,0.4.762,0.766a10.342,10.342,0,0,0,.891.725l3.942-.323-0.084-1.022a3.27,3.27,0,0,1-1.294-.124,3.412,3.412,0,0,1-1.03-.546,5.228,5.228,0,0,1-.879-0.874q-0.411-.512-0.86-1.106l-2.413-3.17q-0.657-.869-1.2-1.516a4.889,4.889,0,0,0-1.193-1.04,9.578,9.578,0,0,0,2.841-1.277A6.223,6.223,0,0,0,129.175,9.4a5,5,0,0,0,.753-1.881,7.521,7.521,0,0,0,.092-1.888,5.392,5.392,0,0,0-.672-2.278,4.4,4.4,0,0,0-1.655-1.614,7.853,7.853,0,0,0-2.734-.889A18.382,18.382,0,0,0,121.05.73q-1.823.119-3.608,0.28t-3.557.338L114,2.735l2.25-.323q-0.023.478,0,1.052t0.076,1.215l1.107,13.5q0.067,0.824.117,1.519a3.624,3.624,0,0,1-.093,1.213,1.57,1.57,0,0,1-.561.845,2.635,2.635,0,0,1-1.3.429l0.084,1.022,7.045-.577-0.112-1.357-2.251.307a9.152,9.152,0,0,0,0-1.015q-0.027-.613-0.1-1.469l-0.5-6.079q0.538,0,1.074-.034t1.052-.109A6.091,6.091,0,0,1,122.558,13.508Zm-3.383-7.682q-0.069-.838-0.117-1.525a3.442,3.442,0,0,1,.095-1.19,1.454,1.454,0,0,1,.564-0.806,2.641,2.641,0,0,1,1.308-.376,6.3,6.3,0,0,1,4.338.849,4.5,4.5,0,0,1,1.643,3.434,5.532,5.532,0,0,1-.24,2.33,4,4,0,0,1-1.074,1.631,5.135,5.135,0,0,1-1.761,1.027,10.649,10.649,0,0,1-2.319.52,9.5,9.5,0,0,1-1,.09q-0.453.014-.945,0.024ZM144.3,11.785q2.568,0.208,2.8.237l0.448,0.055a7.79,7.79,0,0,1,1.281.252,1.794,1.794,0,0,1,.833.5,1.741,1.741,0,0,1,.405.906,5.325,5.325,0,0,1-.022,1.484l1.037,0.128,0.832-6.605L150.5,8.567l-0.109,2.741-5.944-.734,0.637-5.057q0.122-.965.247-1.65a2.874,2.874,0,0,1,.415-1.108,1.519,1.519,0,0,1,.805-0.593,3.792,3.792,0,0,1,1.405-.107l2.931,0.315a7.027,7.027,0,0,1,1.588.375,2.935,2.935,0,0,1,1.208.826,3.312,3.312,0,0,1,.7,1.456,6.5,6.5,0,0,1,.04,2.246L155.46,7.4,156,1.884,140.752,0l-0.174,1.379,2.308,0.145q-0.121.468-.217,1.04t-0.177,1.216l-1.709,13.574-0.116.92a11.537,11.537,0,0,1-.2,1.167,2.342,2.342,0,0,1-.385.879,1.53,1.53,0,0,1-.735.525,2.841,2.841,0,0,1-1.229.089l-0.131,1.042L154.345,24l0.956-6.092-1.084-.134a7.176,7.176,0,0,1-.617,2.282,3.7,3.7,0,0,1-1.108,1.373,3.456,3.456,0,0,1-1.532.62,7.291,7.291,0,0,1-1.905.022l-6.079-.657a8.874,8.874,0,0,0,.21-0.978q0.1-.587.207-1.461Z"/>
</svg>
